<svg xmlns="http://www.w3.org/2000/svg" viewBox="0 0 24 24" fill="currentColor">
  <path d="M12 2a10 10 0 1 0 0 20 10 10 0 0 0 0-20Zm6.68 9h-2.14a12.4 12.4 0 0 0-.85-3.52A8.06 8.06 0 0 1 18.68 11Zm-4.58 0h-3.2c.12-1.3.5-2.52 1.15-3.56.24-.38.51-.72.8-1.04.29.32.56.66.8 1.04.65 1.04 1.03 2.26 1.15 3.56Zm-2.06-5.73A9 9 0 0 0 10.4 6.1c-.7 1.05-1.16 2.27-1.38 3.59H6.8a8.05 8.05 0 0 1 5.24-5.42ZM6.1 13h2.9c.12 1.32.5 2.54 1.2 3.6.22.34.46.66.72.95A8 8 0 0 1 6.1 13Zm4.32-4.5c-.19.6-.33 1.24-.42 1.9H6.7c.04-.66.16-1.31.35-1.93h3.37Zm.86 8.78c.26-.3.5-.61.72-.95.7-1.05 1.09-2.28 1.2-3.6h2.9a8.07 8.07 0 0 1-5.18 4.55 8.4 8.4 0 0 0-.36-.01c-.08 0-.2 0-.28.01ZM14 12h2.68a9 9 0 0 1-.35 1.93H12.4c.09-.66.23-1.3.42-1.9h1.18Zm-2.78-1c.09-.67.23-1.3.42-1.9h-1.28c-.19.6-.33 1.24-.42 1.9h1.28Zm-2.1 0c.09-.67.23-1.3.42-1.9H6.74A9 9 0 0 0 6.4 11h2.72Zm3.96-5.38c.7 1.05 1.16 2.27 1.38 3.58h2.24A8.05 8.05 0 0 0 13.08 5.6ZM6.4 12c.04.66.16 1.3.34 1.92h2.72c-.09-.66-.23-1.3-.42-1.92H6.4Zm3.86 5.8a8.05 8.05 0 0 0 4.8-4.8h-2.24c-.22 1.31-.68 2.53-1.38 3.58-.23.35-.48.68-.76.99-.14.02-.28.03-.42.03-.29 0-.58-.03-.85-.08.29-.32.56-.66.8-1.04.65-1.04 1.03-2.26 1.15-3.56h-1.18c-.19 1.3-.53 2.52-1.15 3.56-.24.38-.51.72-.8 1.04-.29-.32-.56-.66-.8-1.04-.65-1.04-1.03-2.26-1.15-3.56H6.98a8.05 8.05 0 0 0 3.76 3.83c.22.1.45.18.7.24-.72-.18-1.38-.5-1.98-.93l-.02-.02a8.08 8.08 0 0 1-2.8-5.12h2.9c.12 1.32.5 2.54 1.2 3.6.22.34.46.66.72.95.26-.3.5-.61.72-.95.7-1.05 1.09-2.28 1.2-3.6h2.9a8 8 0 0 1-1.18 3.83 8.07 8.07 0 0 1-6.82 3.21c-.2 0-.39-.01-.58-.02a8.08 8.08 0 0 1-2.8-5.12h2.9c.12 1.32.5 2.54 1.2 3.6.22.34.46.66.72.95.26-.3.5-.61.72-.95.7-1.05 1.09-2.28 1.2-3.6h2.9a8 8 0 0 1-1.18 3.83 8.07 8.07 0 0 1-6.82 3.21c-.2 0-.39-.01-.58-.02A8.08 8.08 0 0 1 4 12c0-4.41 3.6-8 8-8 .09 0 .18 0 .27.01Z"/>
</svg>
