<svg xmlns="http://www.w3.org/2000/svg" viewBox="0 0 24 24" fill="currentColor">
  <path d="M22.46 6c-.77.35-1.6.58-2.46.69a4.15 4.15 0 0 0 1.82-2.3 8.27 8.27 0 0 1-2.62 1.01A4.13 4.13 0 0 0 16.11 4c-2.3 0-4.16 1.9-4.16 4.24 0 .33.03.65.1.96A11.73 11.73 0 0 1 3.1 5.14a4.3 4.3 0 0 0-.56 2.13c0 1.47.73 2.76 1.84 3.52-.66-.02-1.28-.21-1.82-.5v.05c0 2.07 1.44 3.8 3.35 4.2-.35.1-.73.15-1.12.15-.27 0-.54-.03-.8-.08.54 1.72 2.11 2.97 3.97 3a8.3 8.3 0 0 1-5.15 1.8c-.33 0-.65-.02-.97-.06A11.76 11.76 0 0 0 8.1 21c7.55 0 11.68-6.42 11.68-11.99l-.01-.55A8.6 8.6 0 0 0 22.46 6z"/>
</svg>
