<svg xmlns="http://www.w3.org/2000/svg" viewBox="0 0 24 24" fill="currentColor">
  <path d="M20 4.6a15.6 15.6 0 0 0-4.1-1.3l-.2.3c1.5.4 2.8.9 4 1.5a11.2 11.2 0 0 0-8.7-.4 11 11 0 0 0-1.2.5l-.4-.4a15.6 15.6 0 0 0-4.2 1.3c-1.2 1.8-1.9 3.6-1.9 5.4 0 5 3.2 7 7.8 7.4h.2l.6-.8c-2-.6-3.7-1.7-5-3.2l1.3.7a13 13 0 0 0 8.1.3c.2-.1.5-.2.7-.3l.1-.1c0 0-.4.7-1.5 1.3l.8.8h.1c4-.2 7.6-2 7.6-7.4 0-1.8-.7-3.6-1.9-5.4ZM9.4 12.9c-.8 0-1.4-.7-1.4-1.5 0-.9.6-1.5 1.4-1.5s1.4.6 1.4 1.5c0 .8-.6 1.5-1.4 1.5Zm5.2 0c-.8 0-1.4-.7-1.4-1.5 0-.9.6-1.5 1.4-1.5s1.4.6 1.4 1.5c0 .8-.6 1.5-1.4 1.5Z"/>
</svg>
